<?xml version="1.0" encoding="utf-8"?>
<!-- Generator: Adobe Illustrator 24.3.0, SVG Export Plug-In . SVG Version: 6.00 Build 0)  -->
<svg version="1.1" id="レイヤー_1" xmlns="http://www.w3.org/2000/svg" xmlns:xlink="http://www.w3.org/1999/xlink" x="0px"
	 y="0px" viewBox="0 0 385 140" style="enable-background:new 0 0 385 140;" xml:space="preserve">
<style type="text/css">
	.st0{fill:#3FC9FF;}
	.st1{fill:#B4B4B4;}
	.st2{fill:#A6A6A6;}
	.st3{fill:#E5E5E5;}
	.st4{fill:#F7F7F7;}
	.st5{fill:#9C9C9C;}
	.st6{fill:#7E7E7E;}
	.st7{fill:#B9B9B9;}
	.st8{fill:#FEFEFE;}
	.st9{fill:#A2A2A2;}
	.st10{fill:#6C6C6C;}
	.st11{fill:#717171;}
	.st12{fill:#737373;}
	.st13{fill:#BDBDBD;}
	.st14{fill:#A7A7A7;}
	.st15{fill:#F4F4F4;}
	.st16{fill:#D6D6D6;}
	.st17{fill:#F5F5F5;}
	.st18{fill:#EBEBEB;}
	.st19{fill:#8C8C8C;}
	.st20{fill:#B0B0B0;}
	.st21{fill:#DEDEDE;}
	.st22{fill:#FFFFFF;}
	.st23{fill:#BABABA;}
	.st24{fill:#F6F6F6;}
	.st25{fill:#F1F1F1;}
	.st26{fill:#C9C9C9;}
	.st27{fill:#DBDBDB;}
	.st28{fill:#B2B2B2;}
	.st29{fill:#CDCDCD;}
	.st30{fill:#E7E7E7;}
	.st31{fill:#B5B5B5;}
	.st32{fill:#E4E4E4;}
	.st33{fill:#D7D7D7;}
	.st34{fill:#F8F8F8;}
	.st35{fill:#272727;}
	.st36{fill:#868686;}
	.st37{fill:#636363;}
	.st38{fill:#494949;}
	.st39{fill:#BCBCBC;}
	.st40{fill:#4D4D4D;}
	.st41{fill:#919191;}
</style>
<path class="st0" d="M-1670.9-232.5c0,0-0.1,0-0.1,0l0,0.2L-1670.9-232.5z"/>
<path class="st0" d="M-1654.1-232.5C-1654.2-232.5-1654.2-232.5-1654.1-232.5L-1654.1-232.5L-1654.1-232.5z"/>
<g>
	<g id="タイトル_5_" transform="translate(-7381 -336)">
		<path class="st1" d="M7683.2,339.5h-219.5c-40.4,0-73.2,29.8-73.2,66.5s32.8,66.5,73.2,66.5h219.5c40.4,0,73.2-29.8,73.2-66.5
			S7723.6,339.5,7683.2,339.5z"/>
	</g>
	<g>
		<g>
			<g>
				<g>
					<g>
						<path class="st2" d="M96.2,32.7C96.2,32.7,96.2,32.7,96.2,32.7l-0.1,0.1L96.2,32.7z"/>
						<path class="st3" d="M96.1,32.6c-4.8-1.9-10-3-15.5-3v12.7L96.1,32.6z"/>
						<path class="st4" d="M80.6,42.3c0,0,0-12.7,0-12.7c-5.5,0-10.8,1.1-15.6,3.1l0,0.1L80.6,42.3z"/>
						<path class="st2" d="M65,32.7C65,32.7,65,32.7,65,32.7L65,32.7L65,32.7z"/>
						<path class="st5" d="M51.8,41.4c-3.7,3.7-6.8,8.1-8.8,13l17.8-3.9v-0.1h0.1L51.8,41.4z"/>
						<path class="st6" d="M51.8,41.4l9.1,9h0.1l4-17.7C60,34.8,55.5,37.7,51.8,41.4z"/>
						<path class="st7" d="M108.7,70h12.8c0-5.5-1.1-10.7-3.1-15.5l-0.3,0.1L108.7,70z"/>
						<path class="st8" d="M100.2,50.4h0.2c0,0,9.1-9,9.1-9c-3.8-3.7-8.3-6.7-13.2-8.8l-0.1,0.1L100.2,50.4z"/>
						<path class="st9" d="M100.4,50.6l17.8,3.9l-0.1,0.2l0.3-0.1c-2.1-4.9-5.1-9.4-8.8-13.1l-9.1,9V50.6z"/>
						<path class="st10" d="M108.6,70.1l9.5,15.3l0.2,0.1c2-4.8,3.1-10,3.1-15.5L108.6,70.1L108.6,70.1z"/>
						<path class="st11" d="M100.4,89.6l-4.1,17.6c5-2,9.4-5,13.2-8.7L100.4,89.6L100.4,89.6z"/>
						<path class="st12" d="M80.6,97.8v12.6c5.5,0,10.7-1.1,15.5-3L80.6,97.8L80.6,97.8z"/>
						<path class="st13" d="M60.7,89.6L43,85.4l-0.1,0c2.1,4.9,5.1,9.4,8.9,13.1C51.8,98.6,60.7,89.7,60.7,89.6z"/>
						<path class="st7" d="M65,107.2l-4.2-17.5l-9,8.9c3.8,3.7,8.2,6.7,13.2,8.8L65,107.2L65,107.2z"/>
						<path class="st14" d="M118.3,85.5l-0.2-0.1c0,0-17.7,4.2-17.7,4.2l9,8.9C113.2,94.8,116.3,90.4,118.3,85.5z"/>
						<path class="st5" d="M80.6,97.8l-0.1-0.1l-15.4,9.5l-0.1,0.2c4.8,2,10.1,3.1,15.6,3.1C80.6,110.4,80.6,97.8,80.6,97.8z"/>
						<path class="st2" d="M60.9,50.5L60.9,50.5l-0.2-0.1v0.1C60.7,50.6,60.9,50.5,60.9,50.5z"/>
						<polygon class="st2" points="60.9,50.4 60.8,50.4 60.9,50.5 						"/>
						<path class="st2" d="M100.3,50.5L100.3,50.5c0.1-0.1-0.1-0.1-0.1-0.1L100.3,50.5L100.3,50.5z"/>
						<polygon class="st2" points="100.4,50.6 100.4,50.4 100.3,50.5 						"/>
						<path class="st2" d="M52.6,70C52.6,70,52.6,70.1,52.6,70l0,0.2l0-0.1L52.6,70z"/>
						<polygon class="st2" points="80.6,97.8 80.7,97.7 80.6,97.7 						"/>
						<path class="st2" d="M80.5,97.6L80.5,97.6l0.1,0.2C80.6,97.8,80.6,97.7,80.5,97.6L80.5,97.6z"/>
						<polygon class="st15" points="100.4,61.9 118.1,54.6 118.2,54.5 100.4,50.6 						"/>
						<polygon class="st14" points="108.6,70 108.7,70 118.1,54.6 100.4,61.9 						"/>
						<polygon class="st1" points="60.7,78.2 52.7,70.2 43,85.4 43,85.4 						"/>
						<polygon class="st2" points="108.6,70.1 108.7,70 108.6,70 						"/>
						<polygon class="st9" points="65,32.8 72.4,50.4 80.6,42.3 						"/>
						<polygon class="st16" points="96.2,32.8 88.8,50.4 100.2,50.4 						"/>
						<polygon class="st3" points="43,85.4 60.7,89.6 60.7,78.2 						"/>
						<polygon class="st3" points="100.5,78.1 118.2,85.4 108.6,70.1 						"/>
						<path class="st17" d="M80.6,42.3l8.2,8.1c0,0,7.4-17.6,7.4-17.6l0-0.2C96.1,32.6,80.6,42.3,80.6,42.3z"/>
						<path class="st18" d="M72.4,50.4L65,32.8l-0.1-0.1c0,0-4,17.7-4,17.7H72.4z"/>
						<path class="st3" d="M60.7,61.9V50.6l-17.8,3.9c0,0,0,0,0,0.1L60.7,61.9z"/>
						<path class="st19" d="M88.8,89.6l-8.2,8.1l15.5,9.6c0,0,0.1,0,0.1,0L88.8,89.6z"/>
						<path class="st7" d="M100.3,78.2v11.3l0.1,0.1l17.7-4.2C118,85.4,100.4,78.1,100.3,78.2L100.3,78.2z"/>
						<path class="st20" d="M60.7,62v-0.1l-17.8-7.3c0,0,9.7,15.4,9.7,15.4L60.7,62z"/>
						<path class="st21" d="M88.8,89.6l7.4,17.7c0,0,0.1,0,0.1,0l4.1-17.6H88.8z"/>
						<path class="st12" d="M72.4,89.6H60.8c0,0,4.2,17.6,4.2,17.6l0.1-0.1L72.4,89.6L72.4,89.6z"/>
						<polygon class="st2" points="100.4,89.6 100.5,89.6 100.4,89.6 						"/>
						<polygon class="st3" points="65.1,107.2 80.5,97.7 72.4,89.7 						"/>
						<path class="st22" d="M94.6,56.2l5.7-5.6l-0.1,0l0-0.1H88.8C88.8,50.4,94.6,56.2,94.6,56.2z"/>
						<polygon class="st3" points="94.6,56.2 100.4,61.9 100.4,50.6 100.3,50.5 						"/>
						<polygon class="st1" points="66.6,56.1 72.4,50.4 60.9,50.4 60.9,50.5 						"/>
						<path class="st3" d="M66.6,56.1l-5.7-5.7c0,0-0.2,0.1-0.2,0.1v11.3l0.1,0L66.6,56.1z"/>
						<polygon class="st23" points="60.8,89.6 72.4,89.6 66.6,83.9 						"/>
						<polygon class="st24" points="100.4,89.6 100.4,78.2 94.7,83.9 						"/>
						<path class="st25" d="M66.6,83.9l-5.8-5.8c0,0,0,11.5,0,11.5C60.8,89.6,66.6,83.9,66.6,83.9z"/>
						<polygon class="st2" points="60.7,61.9 60.7,62 60.8,61.9 						"/>
						<polygon class="st26" points="94.7,83.9 88.8,89.6 100.4,89.6 100.4,89.6 						"/>
						<polygon class="st2" points="100.4,78.2 100.5,78.1 100.4,78.1 						"/>
						<polygon class="st27" points="100.4,70 100.4,78.1 100.5,78.1 108.6,70.1 108.6,70 						"/>
						<path class="st2" d="M72.4,89.7C72.4,89.6,72.4,89.6,72.4,89.7L72.4,89.7z"/>
						<polygon class="st1" points="100.4,70 108.6,70 100.4,61.9 						"/>
						<path class="st28" d="M80.6,97.7v-8.1h-8.2c0,0,8.1,8,8.1,8L80.6,97.7L80.6,97.7z"/>
						<polygon class="st3" points="80.6,97.7 80.7,97.7 88.8,89.6 80.6,89.6 						"/>
						<path class="st29" d="M60.7,70v-8l-8.1,8C52.6,70,60.7,70,60.7,70z"/>
						<polygon class="st22" points="60.7,70 52.6,70 52.7,70.1 52.7,70.2 60.7,78.2 						"/>
						<polygon class="st30" points="88.8,50.4 80.6,42.3 80.6,50.4 						"/>
						<path class="st31" d="M80.6,50.4v-8.1c0,0-8.2,8.1-8.2,8.1H80.6z"/>
						<polygon class="st3" points="80.6,89.6 80.6,70 72.4,89.6 						"/>
						<polygon class="st4" points="80.6,70 100.4,78.1 100.4,70 						"/>
						<polygon class="st32" points="60.8,61.9 80.6,70 66.6,56.1 						"/>
						<polygon class="st22" points="88.8,50.4 80.6,70 94.6,56.2 						"/>
						<polygon class="st3" points="72.4,50.4 80.6,70 80.6,50.4 						"/>
						<polygon class="st18" points="80.6,70 88.8,89.6 94.7,83.9 						"/>
						<polygon class="st4" points="66.6,83.9 72.4,89.6 72.4,89.6 80.6,70 						"/>
						<polygon class="st22" points="80.6,70 60.7,78.2 66.6,83.9 						"/>
						<path class="st4" d="M80.6,70l8.2-19.6c0,0-8.2,0-8.2,0V70z"/>
						<polygon class="st33" points="80.6,70 60.8,61.9 60.7,62 60.7,70 						"/>
						<polygon class="st17" points="80.6,70 94.7,83.9 100.4,78.2 100.4,78.1 						"/>
						<polygon class="st34" points="80.6,70 80.6,89.6 88.8,89.6 						"/>
						<polygon class="st4" points="80.6,70 72.4,50.4 66.6,56.1 						"/>
						<polygon class="st25" points="80.6,70 60.7,70 60.7,78.2 						"/>
						<polygon class="st4" points="100.4,61.9 94.6,56.2 80.6,70 						"/>
						<polygon class="st8" points="80.6,70 100.4,70 100.4,61.9 						"/>
					</g>
					<g>
						<path class="st35" d="M52.6,70c0,0-9.5,0-9.5,0H52.6z"/>
						<path class="st36" d="M39.8,70h3.3l9.6,0l-9.7-15.4C40.9,59.3,39.8,64.5,39.8,70c0,0,3.3,0,3.3,0H39.8z"/>
						<path class="st37" d="M52.6,70.1L52.6,70.1L43.1,70l-3.3,0c0,5.5,1.1,10.7,3.1,15.5l0.1,0l-0.1,0l9.7-15.2L52.6,70.1z"/>
					</g>
					<polygon class="st11" points="59,76.9 60.7,78.2 43,85.4 					"/>
					<polygon class="st38" points="94.8,107.9 96.2,107.4 80.7,97.7 					"/>
					<polygon class="st39" points="100.3,60.8 100.4,61.9 88.8,50.4 					"/>
					<polygon class="st22" points="100.4,78.1 100.4,61.9 100.9,62.5 					"/>
					<polygon class="st40" points="80.7,98.5 84.5,110.3 80.6,110.4 					"/>
					<polygon class="st5" points="56.9,93.5 58.6,101.4 51.8,98.6 					"/>
					<polygon class="st7" points="88.8,50.4 80.6,50.4 72.4,50.4 80.3,48.4 					"/>
					<polygon class="st7" points="60.7,78.2 72.4,89.6 65,85.5 					"/>
					<polygon class="st38" points="40.3,75.8 44.6,70.3 39.8,70 					"/>
					<polygon class="st22" points="80.6,50.4 80.6,89.6 84.6,50.6 					"/>
					<polygon class="st41" points="60.7,89.6 67.3,101.1 72.4,89.6 					"/>
				</g>
			</g>
		</g>
		<path class="st22" d="M94.6,56.2l5.7-5.6l-0.1,0l0-0.1H88.8C88.8,50.4,94.6,56.2,94.6,56.2z"/>
		<polygon class="st22" points="60.7,70 52.6,70 52.7,70.1 52.7,70.2 60.7,78.2 		"/>
		<polygon class="st22" points="88.8,50.4 80.6,70 94.6,56.2 		"/>
	</g>
	<g>
		<path class="st22" d="M160.7,55.4c0.4-0.5,0.5-0.6,1.1-0.3c2.5,1,5.1,2.5,7.5,4.2c0.4,0.3,0.4,0.5,0,1.1l-2.2,3.1
			c-0.5,0.7-0.6,0.7-1.2,0.3c-2.2-1.8-4.8-3.2-7.2-4.4c-0.3-0.1-0.5-0.3-0.5-0.5s0.1-0.4,0.3-0.7L160.7,55.4z M180,81.8
			c-0.1-1.4-0.2-2.5-0.3-4c2.1,0.1,4.2,0.2,6.2,0.4c0.5,0.1,0.8,0.3,0.8,0.6c0,0.4-0.2,0.7-0.4,1.2c-0.1,0.4-0.2,1-0.2,1.9h14.9
			c5.1,0,6.8-0.1,7.2-0.1c0.6,0,0.6,0.1,0.6,0.7v4.1c0,0.6-0.1,0.6-0.6,0.6c-0.3,0-2.1-0.1-7.2-0.1H186v2.1c0,4.3,0.1,6.2,0.1,6.5
			c0,0.6-0.1,0.6-0.6,0.6h-5c-0.6,0-0.6-0.1-0.6-0.6c0-0.3,0.1-2.2,0.1-6.5V87h-14.1c-5.1,0-6.8,0.1-7.1,0.1c-0.6,0-0.7-0.1-0.7-0.6
			v-4.1c0-0.6,0.1-0.7,0.7-0.7c0.3,0,2.1,0.1,7.1,0.1H180z M171.8,68.3c0.2,0.5,0.3,0.9,0.3,1.2c0,0.6-0.3,1-1.1,1.8
			c-2.2,2.2-4.8,4.4-6.8,6c-0.7,0.6-1.2,1.1-1.4,1.4c-0.2,0.4-0.5,0.6-0.8,0.6c-0.3,0-0.5-0.2-0.8-0.7c-0.9-1.3-2-3.2-2.7-4.7
			c1.5-0.7,2.9-1.5,4-2.3c2.5-1.8,5.6-4.4,8.2-7.2C170.9,65.6,171.3,67.1,171.8,68.3z M164.1,45c0.4-0.5,0.6-0.5,1.1-0.3
			c2.6,1.3,4.9,2.6,7.4,4.5c0.2,0.2,0.4,0.3,0.4,0.5c0,0.1-0.1,0.3-0.3,0.5l-2.3,3.1c-0.5,0.6-0.7,0.6-1.2,0.2
			c-2.2-1.7-4.7-3.4-7.4-4.7c-0.5-0.3-0.5-0.4,0-1L164.1,45z M176.2,60.3c-0.3,0.2-0.5,0.5-0.7,0.7c-0.6,0.6-0.9,0.9-1.3,0.9
			c-0.3,0-0.6-0.3-1.2-1c-0.8-1-1.7-1.8-2.7-2.5c4.1-3.5,6.9-7.5,8.6-11.2c0.4-0.9,1-2.4,1.2-3.6c1.9,0.3,3.6,0.7,5.2,1.1
			c0.6,0.2,0.9,0.4,0.9,0.8c0,0.3-0.2,0.6-0.6,1c-0.3,0.3-1,1.1-1.4,2.1c-0.3,0.7-0.7,1.4-1,2.1h7.2c0.7-1.3,1.3-2.7,1.7-3.6
			c0.4-1,0.7-2.1,1-3.2c2,0.3,3.6,0.7,5.2,1.2c0.4,0.1,0.7,0.3,0.7,0.6c0,0.5-0.2,0.6-0.6,1c-0.4,0.3-0.6,0.6-0.8,1
			c-0.5,0.8-1.1,2.1-1.8,3.1h3.8c4.8,0,6.5-0.1,6.8-0.1c0.6,0,0.7,0.1,0.7,0.7v3.1c0,0.6-0.1,0.7-0.7,0.7c-0.3,0-2-0.1-6.8-0.1H195
			v3.2h2.7c4.8,0,6.3-0.1,6.6-0.1c0.6,0,0.7,0.1,0.7,0.6v3c0,0.6-0.1,0.6-0.7,0.6c-0.3,0-1.8-0.1-6.6-0.1H195v3.2h2.6
			c4.8,0,6.3-0.1,6.7-0.1c0.6,0,0.6,0.1,0.6,0.6v3c0,0.6-0.1,0.6-0.6,0.6c-0.3,0-1.9-0.1-6.7-0.1H195v3.2h4.3c5.4,0,7.2-0.1,7.5-0.1
			c0.6,0,0.7,0,0.7,0.6v3.2c0,0.6-0.1,0.6-0.7,0.6c-0.3,0-2.2-0.1-7.5-0.1h-15c-5.4,0-7.4,0.1-7.7,0.1c-0.6,0-0.6-0.1-0.6-0.6
			c0-0.4,0.1-2.4,0.1-6.7V60.3z M189.8,58.2V55h-8.3v3.2H189.8z M189.8,65.5v-3.2h-8.3v3.2H189.8z M189.8,72.8v-3.2h-8.3v3.2H189.8z
			"/>
		<path class="st22" d="M219.8,61c-5.2,0-7,0.1-7.3,0.1c-0.6,0-0.6-0.1-0.6-0.6V56c0-0.6,0.1-0.6,0.6-0.6c0.3,0,2.1,0.1,7.3,0.1
			h13.3v-3.8c0-3.2-0.1-5.2-0.4-7.4c2.1,0.1,4.3,0.2,6.3,0.4c0.5,0.1,0.9,0.3,0.9,0.6c0,0.5-0.2,1-0.3,1.5c-0.2,0.7-0.3,1.8-0.3,4.8
			v4h14.2c5.2,0,7-0.1,7.4-0.1c0.6,0,0.6,0.1,0.6,0.6v4.6c0,0.6-0.1,0.6-0.6,0.6c-0.3,0-2.2-0.1-7.4-0.1h-11.8
			c5.1,8.8,12.5,15.7,21.7,20.3c-1,1.1-2,2.5-2.8,4.1c-0.5,0.9-0.7,1.4-1.1,1.4c-0.2,0-0.6-0.2-1.2-0.6c-8-5.3-14.8-12-19.3-20.9
			c0,4.7,0.1,10.3,0.2,15.4h3c5,0,6.7-0.1,7-0.1c0.6,0,0.7,0.1,0.7,0.6v4.3c0,0.6-0.1,0.6-0.7,0.6c-0.3,0-2-0.1-7-0.1h-2.9
			c0.1,4.8,0.2,8.5,0.2,9.5c0,0.5-0.1,0.6-0.6,0.6h-5.3c-0.6,0-0.6-0.1-0.6-0.6c0-1,0.1-4.7,0.2-9.5h-2.5c-5,0-6.7,0.1-7,0.1
			c-0.6,0-0.6-0.1-0.6-0.6v-4.3c0-0.6,0.1-0.6,0.6-0.6c0.3,0,2,0.1,7,0.1h2.5c0.1-4.8,0.2-10.1,0.2-14.8c-4.1,8.3-10.8,15.2-18,20.2
			c-0.6,0.5-1,0.7-1.3,0.7c-0.3,0-0.6-0.3-1.1-1.3c-0.9-1.6-1.8-2.8-3-3.8c8-4.3,15.9-11.7,20.8-20.8H219.8z"/>
		<path class="st22" d="M272,70.1c-5.2,0-7,0.1-7.3,0.1c-0.5,0-0.6-0.1-0.6-0.6v-4.1c0-0.6,0.1-0.6,0.6-0.6c0.3,0,2.1,0.1,7.3,0.1
			h8.3c1-2.6,1.6-4.6,2.1-6.5c0.2-0.9,0.3-1.7,0.5-2.8c1.5,0.3,3.5,0.7,5,1.1c0.5,0.2,0.9,0.3,0.9,0.7c0,0.4-0.2,0.7-0.5,0.9
			c-0.3,0.3-0.6,0.9-0.7,1.3c-0.5,1.7-1.1,3.2-1.9,5.2c4.4,0,6.1-0.1,6.4-0.1c0.6,0,0.6,0.1,0.6,0.6v4.1c0,0.6-0.1,0.6-0.6,0.6
			c-0.3,0-2.1-0.1-7.2-0.1H272z M273,54.8c-5,0-6.7,0.1-7,0.1c-0.6,0-0.6-0.1-0.6-0.6v-4c0-0.6,0.1-0.7,0.6-0.7c0.3,0,2,0.1,7,0.1
			h2.6v-1c0-2.1-0.1-3.4-0.3-4.7c2.1,0.1,3.8,0.2,5.8,0.4c0.6,0.1,0.9,0.3,0.9,0.5c0,0.4-0.2,0.7-0.4,1.1c-0.2,0.4-0.2,1.1-0.2,2.7
			v1h2.9c5,0,6.6-0.1,7-0.1c0.6,0,0.6,0.1,0.6,0.7v4c0,0.6-0.1,0.6-0.6,0.6c-0.3,0-2-0.1-7-0.1H273z M268.2,95.6
			c-0.6,0-0.6-0.1-0.6-0.6c0-0.4,0.1-1.8,0.1-9.6v-4.1c0-4.4-0.1-6-0.1-6.4c0-0.6,0.1-0.6,0.6-0.6c0.4,0,1.9,0.1,6.3,0.1h8.2
			c4.4,0,6-0.1,6.3-0.1c0.6,0,0.7,0.1,0.7,0.6c0,0.3-0.1,1.9-0.1,5.6v4.7c0,7.8,0.1,9.2,0.1,9.6c0,0.6-0.1,0.7-0.7,0.7h-4.4
			c-0.6,0-0.6-0.1-0.6-0.7v-2.6h-10.8V95c0,0.5-0.1,0.6-0.6,0.6H268.2z M271.8,64.2c-0.9,0.2-0.9,0.1-1-0.6
			c-0.3-2.1-0.9-4.4-1.6-6.3c-0.2-0.6-0.1-0.6,0.6-0.9l3.1-0.9c0.7-0.2,0.9-0.1,1.1,0.5c0.7,1.8,1.4,4.1,1.8,6.3
			c0.1,0.6,0,0.6-0.7,0.9L271.8,64.2z M273.2,87.1H284v-7.8h-10.8V87.1z M309.4,46.6c0.7,0,1.2-0.1,1.4-0.2c0.3-0.1,0.6-0.2,0.9-0.2
			c0.5,0,0.9,0.2,2.4,1.7c1.2,1.4,1.4,1.9,1.4,2.3c0,0.5-0.2,0.7-0.5,1c-0.4,0.3-0.7,0.8-1.2,2.1c-1.7,4.4-3.2,8.3-5.2,12.4
			c5.8,5.2,7,8.7,7,13.3c0,5.9-3.4,9.1-10,9.7c-1.8,0.2-1.8,0.2-2.1-1.7c-0.3-1.7-0.9-2.9-1.6-3.8c5.4,0.1,7.9-1.3,7.9-4.7
			c0-3.6-1.3-6.4-7.4-12c2.3-4.8,4.2-9.6,5.9-14.9h-8v31.9c0,7.6,0.1,11.6,0.1,11.9c0,0.6-0.1,0.6-0.6,0.6h-4.6
			c-0.6,0-0.7-0.1-0.7-0.6c0-0.3,0.1-4.1,0.1-11.9V59.1c0-7.8-0.1-11.6-0.1-12c0-0.6,0.1-0.6,0.7-0.6c0.3,0,1.9,0.1,5.1,0.1H309.4z"
			/>
	</g>
</g>
</svg>
