<?xml version="1.0" encoding="utf-8"?>
<!-- Generator: Adobe Illustrator 24.3.0, SVG Export Plug-In . SVG Version: 6.00 Build 0)  -->
<svg version="1.1" id="レイヤー_1" xmlns="http://www.w3.org/2000/svg" xmlns:xlink="http://www.w3.org/1999/xlink" x="0px"
	 y="0px" viewBox="0 0 385 140" style="enable-background:new 0 0 385 140;" xml:space="preserve">
<style type="text/css">
	.st0{fill:#3FC9FF;}
	.st1{fill:#B4B4B4;}
	.st2{fill:#FFFFFF;}
	.st3{fill:#C6FBC8;}
	.st4{fill:#F2FBF2;}
	.st5{fill:#5FC563;}
	.st6{fill:#41A745;}
	.st7{fill:#95D197;}
	.st8{fill:#FDFFFD;}
	.st9{fill:#70C473;}
	.st10{fill:#2F9533;}
	.st11{fill:#448F47;}
	.st12{fill:#498F4C;}
	.st13{fill:#95D897;}
	.st14{fill:#77C87A;}
	.st15{fill:#E4FFE5;}
	.st16{fill:#8BD08E;}
	.st17{fill:#AEF2B1;}
	.st18{fill:#E7FFE8;}
	.st19{fill:#D7F8D8;}
	.st20{fill:#CFF4D0;}
	.st21{fill:#5FAA62;}
	.st22{fill:#80D183;}
	.st23{fill:#B6F9B8;}
	.st24{fill:#86DE89;}
	.st25{fill:#EAFFEA;}
	.st26{fill:#DFFDE0;}
	.st27{fill:#A7E1A9;}
	.st28{fill:#B9F2BB;}
	.st29{fill:#85D488;}
	.st30{fill:#60EA66;}
	.st31{fill:#ABE4AD;}
	.st32{fill:#CCF9CE;}
	.st33{fill:#74E178;}
	.st34{fill:#E2FBE3;}
	.st35{fill:#CFF3D0;}
	.st36{fill:#EDFAED;}
	.st37{fill:#F3FBF3;}
	.st38{fill:#272727;}
	.st39{fill:#5FA161;}
	.st40{fill:#209125;}
	.st41{fill:#037908;}
	.st42{fill:#76EB7B;}
	.st43{fill:#077D0C;}
	.st44{fill:#1E6721;}
	.st45{fill:#69AC6B;}
</style>
<path class="st0" d="M-1802.8,532.2c0,0-0.1,0-0.1,0l0,0.2L-1802.8,532.2z"/>
<path class="st0" d="M-1786,532.3C-1786,532.3-1786,532.3-1786,532.3L-1786,532.3L-1786,532.3z"/>
<g>
	<g id="タイトル_2_" transform="translate(-7381 -336)">
		<path class="st1" d="M7683.2,339.5h-219.5c-40.4,0-73.2,29.8-73.2,66.5s32.8,66.5,73.2,66.5h219.5c40.4,0,73.2-29.8,73.2-66.5
			S7723.6,339.5,7683.2,339.5z"/>
	</g>
	<g>
		<path class="st2" d="M167.8,98.7c-3.1,1.2-6.3,1.9-9.5,1.9c-4.1,0-7.7-0.7-10.9-2.2c-3.2-1.5-5.9-3.5-8.1-6
			c-2.2-2.5-3.9-5.4-5.1-8.7c-1.2-3.3-1.7-6.7-1.7-10.3c0-4,0.5-7.7,1.6-11.3c1.1-3.6,2.7-6.7,4.9-9.4c2.2-2.7,4.8-4.8,8.1-6.4
			c3.2-1.6,7-2.4,11.3-2.4c2.9,0,5.7,0.3,8.3,1c2.6,0.7,4.9,1.8,7,3.2c2.1,1.5,3.8,3.3,5.2,5.6c1.4,2.3,2.3,5,2.9,8.2h-7.2
			c-0.4-2.1-1-3.9-2-5.4c-1-1.5-2.2-2.7-3.6-3.7c-1.4-1-3-1.7-4.8-2.2c-1.8-0.5-3.7-0.7-5.7-0.7c-3.3,0-6.1,0.7-8.5,2
			c-2.4,1.3-4.3,3.1-5.8,5.2c-1.5,2.2-2.6,4.6-3.3,7.4c-0.7,2.8-1.1,5.6-1.1,8.5c0,2.8,0.4,5.6,1.2,8.2c0.8,2.6,2,4.9,3.6,6.9
			c1.6,2,3.5,3.6,5.8,4.8c2.3,1.2,5,1.8,8,1.8c2.8,0,5.3-0.5,7.5-1.4c2.2-0.9,4-2.2,5.5-3.8c1.5-1.6,2.6-3.5,3.4-5.6
			c0.8-2.2,1.1-4.5,1-7h-17.3v-6.1h23.8v28.6h-4.6l-1.9-6.8C173.6,95.4,170.9,97.4,167.8,98.7z"/>
		<path class="st2" d="M210.9,70.4c0,4.3-3.5,7.8-7.8,7.8c-4.3,0-7.8-3.5-7.8-7.8c0-4.3,3.5-7.8,7.8-7.8
			C207.6,62.6,210.9,66.2,210.9,70.4z"/>
		<path class="st2" d="M258.8,45v6.1h-28.4v17.3h24.9v6.1h-24.9v24.9h-7.2V45H258.8z"/>
		<path class="st2" d="M284,70.4c0,4.3-3.5,7.8-7.8,7.8c-4.3,0-7.8-3.5-7.8-7.8c0-4.3,3.5-7.8,7.8-7.8C280.7,62.6,284,66.2,284,70.4
			z"/>
		<path class="st2" d="M329.1,52.7c-2.8-1.9-6-2.9-9.8-2.9c-3.2,0-6,0.6-8.3,1.8c-2.3,1.2-4.2,2.9-5.7,4.9c-1.5,2.1-2.6,4.4-3.3,7
			c-0.7,2.6-1.1,5.4-1.1,8.2c0,3.1,0.4,6,1.1,8.8c0.7,2.8,1.8,5.2,3.3,7.2c1.5,2.1,3.4,3.7,5.7,4.9c2.3,1.2,5.1,1.8,8.4,1.8
			c2.4,0,4.5-0.4,6.3-1.2c1.8-0.8,3.4-1.9,4.8-3.3c1.3-1.4,2.4-3.1,3.2-5c0.8-1.9,1.2-4,1.4-6.2h7.2c-0.7,6.8-3.1,12.2-7.1,16
			c-4,3.8-9.5,5.7-16.4,5.7c-4.2,0-7.9-0.7-11-2.2c-3.1-1.4-5.8-3.4-7.8-6c-2.1-2.5-3.6-5.5-4.7-9c-1-3.4-1.6-7.1-1.6-11.1
			c0-4,0.6-7.7,1.7-11.1c1.1-3.5,2.7-6.5,4.9-9.1c2.2-2.6,4.8-4.6,8.1-6.1c3.2-1.5,6.9-2.2,11.1-2.2c2.8,0,5.5,0.4,8.1,1.1
			c2.5,0.8,4.8,1.9,6.8,3.3s3.6,3.3,4.9,5.5c1.3,2.2,2.2,4.8,2.6,7.6h-7.2C333.6,57.5,331.8,54.6,329.1,52.7z"/>
	</g>
	<g>
		<path class="st3" d="M95.5,35.3c-4.7-1.9-9.9-3-15.3-3v12.6L95.5,35.3z"/>
		<path class="st4" d="M80.2,44.9c0,0,0-12.6,0-12.6c-5.5,0-10.7,1.1-15.5,3l0,0.1L80.2,44.9z"/>
		<path class="st5" d="M51.6,44c-3.7,3.7-6.7,8-8.7,12.9L60.5,53v-0.1h0.1L51.6,44z"/>
		<path class="st6" d="M51.6,44l9,8.9h0.1l3.9-17.5C59.8,37.4,55.3,40.3,51.6,44z"/>
		<path class="st7" d="M108,72.3h12.6c0-5.4-1.1-10.6-3.1-15.3l-0.2,0.1L108,72.3z"/>
		<path class="st8" d="M99.6,52.9h0.2c0,0,9-8.9,9-8.9c-3.7-3.7-8.2-6.6-13.1-8.7l-0.1,0.1L99.6,52.9z"/>
		<path class="st9" d="M99.8,53l17.6,3.9l-0.1,0.1l0.2-0.1c-2-4.9-5-9.3-8.8-13l-9,8.9V53z"/>
		<path class="st10" d="M107.9,72.3l9.4,15.2l0.2,0.1c2-4.7,3.1-9.9,3.1-15.3L107.9,72.3L107.9,72.3z"/>
		<path class="st11" d="M99.8,91.7l-4,17.5c4.9-2,9.3-5,13-8.6L99.8,91.7L99.8,91.7z"/>
		<path class="st12" d="M80.2,99.8v12.5c5.4,0,10.6-1.1,15.4-3L80.2,99.8L80.2,99.8z"/>
		<path class="st13" d="M60.5,91.7L43,87.5l-0.1,0c2,4.9,5,9.3,8.8,13C51.7,100.5,60.5,91.7,60.5,91.7z"/>
		<path class="st7" d="M64.7,109.1l-4.2-17.3l-8.9,8.8c3.7,3.7,8.2,6.6,13.1,8.7L64.7,109.1L64.7,109.1z"/>
		<path class="st14" d="M117.5,87.6l-0.2-0.1c0,0-17.5,4.2-17.5,4.2l8.9,8.8C112.5,96.8,115.5,92.4,117.5,87.6z"/>
		<path class="st5" d="M80.2,99.8l-0.1-0.1L64.8,109l-0.1,0.2c4.8,2,10,3,15.5,3C80.2,112.2,80.2,99.8,80.2,99.8z"/>
		<path class="st0" d="M60.7,52.9L60.7,52.9l-0.2-0.1V53C60.5,53,60.7,53,60.7,52.9z"/>
		<polygon class="st0" points="60.7,52.9 60.6,52.9 60.7,52.9 		"/>
		<path class="st0" d="M99.7,53L99.7,53c0.1-0.1-0.1-0.1-0.1-0.1L99.7,53L99.7,53z"/>
		<polygon class="st0" points="99.8,53 99.8,52.9 99.7,53 		"/>
		<path class="st0" d="M52.5,72.3C52.5,72.3,52.4,72.3,52.5,72.3l0,0.2l0-0.1L52.5,72.3z"/>
		<polygon class="st0" points="80.2,99.8 80.3,99.7 80.2,99.7 		"/>
		<path class="st0" d="M80.1,99.6L80.1,99.6l0.1,0.2C80.2,99.8,80.2,99.7,80.1,99.6L80.1,99.6z"/>
		<polygon class="st15" points="99.8,64.2 117.3,57.1 117.4,56.9 99.8,53 		"/>
		<polygon class="st14" points="107.9,72.3 108,72.3 117.3,57.1 99.8,64.2 		"/>
		<polygon class="st16" points="60.5,80.3 52.5,72.4 42.9,87.5 43,87.5 		"/>
		<polygon class="st0" points="107.9,72.3 108,72.3 107.9,72.3 		"/>
		<polygon class="st9" points="64.8,35.4 72.1,52.9 80.2,44.9 		"/>
		<polygon class="st17" points="95.6,35.5 88.3,52.9 99.6,52.9 		"/>
		<polygon class="st3" points="43,87.5 60.5,91.7 60.5,80.3 		"/>
		<polygon class="st3" points="99.9,80.3 117.4,87.5 107.9,72.3 		"/>
		<path class="st18" d="M80.2,44.9l8.1,8c0,0,7.3-17.4,7.3-17.4l0-0.2C95.5,35.3,80.2,44.9,80.2,44.9z"/>
		<path class="st19" d="M72.1,52.9l-7.3-17.4l-0.1-0.1c0,0-4,17.5-4,17.5H72.1z"/>
		<path class="st20" d="M60.5,64.2V53l-17.6,3.9c0,0,0,0,0,0.1L60.5,64.2z"/>
		<path class="st21" d="M88.3,91.7l-8.1,8l15.3,9.5c0,0,0.1,0,0.1,0L88.3,91.7z"/>
		<path class="st7" d="M99.7,80.4v11.2l0.1,0.1l17.5-4.2C117.2,87.5,99.7,80.3,99.7,80.4L99.7,80.4z"/>
		<path class="st22" d="M60.5,64.3v-0.1L42.9,57c0,0,9.6,15.3,9.6,15.3L60.5,64.3z"/>
		<path class="st23" d="M88.3,91.7l7.3,17.5c0,0,0.1,0,0.1,0l4-17.5H88.3z"/>
		<path class="st12" d="M72,91.7H60.6c0,0,4.2,17.4,4.2,17.4l0.1-0.1L72,91.7L72,91.7z"/>
		<polygon class="st0" points="99.8,91.7 99.8,91.7 99.8,91.6 		"/>
		<polygon class="st3" points="64.8,109 80.1,99.7 72.1,91.7 		"/>
		<path class="st2" d="M94,58.6l5.6-5.6l-0.1,0l0-0.1H88.3C88.3,52.9,94,58.6,94,58.6z"/>
		<polygon class="st3" points="94,58.6 99.8,64.2 99.8,53 99.7,53 		"/>
		<polygon class="st16" points="66.3,58.5 72.1,52.9 60.7,52.9 60.7,52.9 		"/>
		<path class="st3" d="M66.3,58.5l-5.7-5.6c0,0-0.2,0.1-0.2,0.1v11.2l0.1,0L66.3,58.5z"/>
		<polygon class="st24" points="60.6,91.7 72,91.7 66.3,86 		"/>
		<polygon class="st25" points="99.8,91.6 99.8,80.4 94.1,86 		"/>
		<path class="st26" d="M66.3,86l-5.8-5.7c0,0,0,11.4,0,11.4C60.6,91.7,66.3,86,66.3,86z"/>
		<polygon class="st0" points="60.5,64.2 60.5,64.3 60.6,64.2 		"/>
		<polygon class="st27" points="94.1,86 88.3,91.7 99.8,91.7 99.8,91.6 		"/>
		<polygon class="st0" points="99.8,80.4 99.9,80.3 99.8,80.3 		"/>
		<polygon class="st28" points="99.8,72.3 99.8,80.3 99.9,80.3 107.9,72.3 107.9,72.3 		"/>
		<path class="st0" d="M72.1,91.7C72.1,91.7,72,91.7,72.1,91.7L72.1,91.7z"/>
		<polygon class="st29" points="99.8,72.3 107.9,72.3 99.8,64.2 		"/>
		<path class="st30" d="M80.2,99.7v-8h-8.1c0,0,8,8,8,8L80.2,99.7L80.2,99.7z"/>
		<polygon class="st3" points="80.2,99.7 80.3,99.7 88.3,91.7 80.2,91.7 		"/>
		<path class="st31" d="M60.5,72.3v-8l-8,7.9C52.5,72.3,60.5,72.3,60.5,72.3z"/>
		<polygon class="st2" points="60.5,72.3 52.5,72.3 52.6,72.4 52.5,72.4 60.5,80.3 		"/>
		<polygon class="st32" points="88.3,52.9 80.2,44.9 80.2,52.9 		"/>
		<path class="st33" d="M80.2,52.9v-8c0,0-8.1,8-8.1,8H80.2z"/>
		<polygon class="st3" points="80.2,91.7 80.2,72.3 72.1,91.7 		"/>
		<polygon class="st4" points="80.2,72.3 99.8,80.3 99.8,72.3 		"/>
		<polygon class="st34" points="60.6,64.2 80.2,72.3 66.3,58.5 		"/>
		<polygon class="st2" points="88.3,52.9 80.2,72.3 94,58.6 		"/>
		<polygon class="st3" points="72.1,52.9 80.2,72.3 80.2,52.9 		"/>
		<polygon class="st19" points="80.2,72.3 88.3,91.7 94.1,86 		"/>
		<polygon class="st4" points="66.3,86 72,91.7 72.1,91.7 80.2,72.3 		"/>
		<polygon class="st2" points="80.2,72.3 60.5,80.3 66.3,86 		"/>
		<path class="st4" d="M80.2,72.3l8.1-19.4c0,0-8.1,0-8.1,0V72.3z"/>
		<polygon class="st35" points="80.2,72.3 60.6,64.2 60.5,64.3 60.5,72.3 		"/>
		<polygon class="st36" points="80.2,72.3 94.1,86 99.8,80.4 99.8,80.3 		"/>
		<polygon class="st37" points="80.2,72.3 80.2,91.7 88.3,91.7 		"/>
		<polygon class="st4" points="80.2,72.3 72.1,52.9 66.3,58.5 		"/>
		<polygon class="st34" points="80.2,72.3 60.5,72.3 60.5,80.3 		"/>
		<polygon class="st4" points="99.8,64.2 94,58.6 80.2,72.3 		"/>
		<polygon class="st8" points="80.2,72.3 99.8,72.3 99.8,64.2 		"/>
		<g>
			<path class="st38" d="M52.5,72.3c0,0-9.5,0-9.5,0H52.5z"/>
			<path class="st39" d="M39.8,72.3H43l9.5,0L42.9,57C40.9,61.7,39.8,66.8,39.8,72.3c0,0,3.2,0,3.2,0H39.8z"/>
			<path class="st40" d="M52.4,72.3L52.4,72.3L43,72.3l-3.2,0c0,5.4,1.1,10.6,3.1,15.3l0.1,0l-0.1,0l9.6-15.1L52.4,72.3z"/>
		</g>
		<polygon class="st11" points="58.8,79.1 60.5,80.3 43,87.5 		"/>
		<polygon class="st41" points="94.3,109.8 95.6,109.3 80.3,99.7 		"/>
		<polygon class="st42" points="99.6,63.3 99.7,64.3 88.4,52.8 		"/>
		<polygon class="st2" points="99.8,80.3 99.8,64.2 100.2,64.8 		"/>
		<polygon class="st43" points="80.3,100.5 84,112.2 80.2,112.2 		"/>
		<polygon class="st5" points="56.8,95.5 58.4,103.3 51.7,100.5 		"/>
		<polygon class="st7" points="88.3,52.9 80.2,52.9 72.1,52.9 79.9,50.9 		"/>
		<polygon class="st7" points="60.5,80.3 72,91.7 64.7,87.6 		"/>
		<polygon class="st44" points="40.3,78 44.6,72.5 39.8,72.3 		"/>
		<polygon class="st2" points="80.2,52.9 80.2,91.7 84.2,53.1 		"/>
		<polygon class="st45" points="60.5,91.7 67,103 72,91.7 		"/>
		<path class="st2" d="M94,58.6l5.6-5.6l-0.1,0l0-0.1H88.3C88.3,52.9,94,58.6,94,58.6z"/>
		<polygon class="st2" points="60.5,72.3 52.5,72.3 52.6,72.4 52.5,72.4 60.5,80.3 		"/>
		<polygon class="st2" points="88.3,52.9 80.2,72.3 94,58.6 		"/>
	</g>
</g>
</svg>
