<?xml version="1.0" encoding="utf-8"?>
<!-- Generator: Adobe Illustrator 24.3.0, SVG Export Plug-In . SVG Version: 6.00 Build 0)  -->
<svg version="1.1" id="レイヤー_1" xmlns="http://www.w3.org/2000/svg" xmlns:xlink="http://www.w3.org/1999/xlink" x="0px"
	 y="0px" viewBox="0 0 385 140" style="enable-background:new 0 0 385 140;" xml:space="preserve">
<style type="text/css">
	.st0{fill:#3FC9FF;}
	.st1{fill:#B4B4B4;}
	.st2{fill:#FFFFFF;}
	.st3{fill:#C7F0FC;}
	.st4{fill:#F6F6FF;}
	.st5{fill:#76A3DC;}
	.st6{fill:#518AB7;}
	.st7{fill:#A5BCE1;}
	.st8{fill:#FFFFF2;}
	.st9{fill:#7DACD1;}
	.st10{fill:#3D79A3;}
	.st11{fill:#5676A1;}
	.st12{fill:#5B76A1;}
	.st13{fill:#A6C1E9;}
	.st14{fill:#80B3D1;}
	.st15{fill:#DAFFFF;}
	.st16{fill:#8EC1D3;}
	.st17{fill:#ACE7F0;}
	.st18{fill:#DDFFFF;}
	.st19{fill:#DBF0FC;}
	.st20{fill:#CBF0ED;}
	.st21{fill:#6B95B6;}
	.st22{fill:#80C2D1;}
	.st23{fill:#BBE9FE;}
	.st24{fill:#92C6EA;}
	.st25{fill:#E8FDF7;}
	.st26{fill:#E1F7FF;}
	.st27{fill:#ABD3E5;}
	.st28{fill:#BCE6F5;}
	.st29{fill:#9BB7EA;}
	.st30{fill:#75C2FF;}
	.st31{fill:#ACD9E5;}
	.st32{fill:#CFF0FC;}
	.st33{fill:#92B9FF;}
	.st34{fill:#D1EBF5;}
	.st35{fill:#FFFFFB;}
	.st36{fill:#B8E1F7;}
	.st37{fill:#FDF0FC;}
	.st38{fill:#F4FAFC;}
	.st39{fill:#E3F6FC;}
	.st40{fill:#272727;}
	.st41{fill:#6690A8;}
	.st42{fill:#336FA4;}
	.st43{fill:#234E99;}
	.st44{fill:#8AC9FF;}
	.st45{fill:#235499;}
	.st46{fill:#314C7A;}
	.st47{fill:#7797BA;}
</style>
<path class="st0" d="M-1743.6,229.7c0,0-0.1,0-0.1,0l0,0.2L-1743.6,229.7z"/>
<path class="st0" d="M-1726.8,229.7C-1726.8,229.7-1726.9,229.7-1726.8,229.7L-1726.8,229.7L-1726.8,229.7z"/>
<g>
	<g id="タイトル_5_" transform="translate(-7381 -336)">
		<path class="st1" d="M7683.2,339.5h-219.5c-40.4,0-73.2,29.8-73.2,66.5s32.8,66.5,73.2,66.5h219.5c40.4,0,73.2-29.8,73.2-66.5
			S7723.6,339.5,7683.2,339.5z"/>
	</g>
	<g>
		<path class="st2" d="M142.3,45l17.1,45.6L176.6,45h9.9v54.3h-6.8V54.2h-0.2l-16.9,45.1h-6.2l-16.9-45.1h-0.2v45.1h-6.8V45H142.3z"
			/>
		<path class="st2" d="M210.9,70.4c0,4.3-3.5,7.8-7.8,7.8c-4.3,0-7.8-3.5-7.8-7.8c0-4.3,3.5-7.8,7.8-7.8
			C207.6,62.6,210.9,66.2,210.9,70.4z"/>
		<path class="st2" d="M258.8,45v6.1h-28.4v17.3h24.9v6.1h-24.9v24.9h-7.2V45H258.8z"/>
		<path class="st2" d="M284,70.4c0,4.3-3.5,7.8-7.8,7.8c-4.3,0-7.8-3.5-7.8-7.8c0-4.3,3.5-7.8,7.8-7.8C280.7,62.6,284,66.2,284,70.4
			z"/>
		<path class="st2" d="M329.1,52.7c-2.8-1.9-6-2.9-9.8-2.9c-3.2,0-6,0.6-8.3,1.8s-4.2,2.8-5.7,4.9c-1.5,2.1-2.6,4.4-3.3,7
			c-0.7,2.6-1.1,5.4-1.1,8.2c0,3.1,0.4,6,1.1,8.8c0.7,2.8,1.8,5.2,3.3,7.2c1.5,2.1,3.4,3.7,5.7,4.9c2.3,1.2,5.1,1.8,8.4,1.8
			c2.4,0,4.5-0.4,6.3-1.2c1.8-0.8,3.4-1.9,4.8-3.3c1.3-1.4,2.4-3.1,3.2-5c0.8-1.9,1.2-4,1.4-6.2h7.2c-0.7,6.8-3.1,12.2-7.1,16
			c-4,3.8-9.5,5.7-16.4,5.7c-4.2,0-7.9-0.7-11-2.2c-3.1-1.4-5.8-3.4-7.8-6c-2.1-2.5-3.6-5.5-4.7-9c-1-3.4-1.6-7.1-1.6-11.1
			c0-4,0.6-7.7,1.7-11.1c1.1-3.5,2.7-6.5,4.9-9.1c2.2-2.6,4.8-4.6,8.1-6.1c3.2-1.5,6.9-2.2,11.1-2.2c2.8,0,5.5,0.4,8.1,1.1
			c2.5,0.8,4.8,1.9,6.8,3.3c2,1.5,3.6,3.3,4.9,5.5c1.3,2.2,2.2,4.8,2.6,7.6h-7.2C333.6,57.5,331.8,54.6,329.1,52.7z"/>
	</g>
	<g>
		<g>
			<g>
				<g>
					<g>
						<path class="st0" d="M95.7,31.6C95.6,31.6,95.6,31.6,95.7,31.6l-0.1,0.1L95.7,31.6z"/>
						<path class="st3" d="M95.5,31.6c-4.7-1.9-9.9-3-15.3-3v12.6L95.5,31.6z"/>
						<path class="st4" d="M80.2,41.2c0,0,0-12.6,0-12.6c-5.5,0-10.7,1.1-15.5,3l0,0.1L80.2,41.2z"/>
						<path class="st0" d="M64.7,31.6C64.7,31.6,64.7,31.7,64.7,31.6L64.7,31.6L64.7,31.6z"/>
						<path class="st5" d="M51.6,40.3c-3.7,3.7-6.7,8-8.7,12.9l17.6-3.9v-0.1h0.1L51.6,40.3z"/>
						<path class="st6" d="M51.6,40.3l9,8.9h0.1l3.9-17.5C59.8,33.7,55.3,36.7,51.6,40.3z"/>
						<path class="st7" d="M108,68.6h12.6c0-5.4-1.1-10.6-3.1-15.3l-0.2,0.1L108,68.6z"/>
						<path class="st8" d="M99.6,49.2h0.2c0,0,9-8.9,9-8.9c-3.7-3.7-8.2-6.6-13.1-8.7l-0.1,0.1L99.6,49.2z"/>
						<path class="st9" d="M99.8,49.3l17.6,3.9l-0.1,0.1l0.2-0.1c-2-4.9-5-9.3-8.8-13l-9,8.9V49.3z"/>
						<path class="st10" d="M107.9,68.6l9.4,15.2l0.2,0.1c2-4.7,3.1-9.9,3.1-15.3L107.9,68.6L107.9,68.6z"/>
						<path class="st11" d="M99.8,88l-4,17.5c4.9-2,9.3-5,13-8.6L99.8,88L99.8,88z"/>
						<path class="st12" d="M80.2,96.1v12.5c5.4,0,10.6-1.1,15.4-3L80.2,96.1L80.2,96.1z"/>
						<path class="st13" d="M60.5,88L43,83.8l-0.1,0c2,4.9,5,9.3,8.8,13C51.7,96.8,60.5,88.1,60.5,88z"/>
						<path class="st7" d="M64.7,105.4l-4.2-17.3l-8.9,8.8c3.7,3.7,8.2,6.6,13.1,8.7L64.7,105.4L64.7,105.4z"/>
						<path class="st14" d="M117.5,83.9l-0.2-0.1c0,0-17.5,4.2-17.5,4.2l8.9,8.8C112.5,93.2,115.5,88.8,117.5,83.9z"/>
						<path class="st5" d="M80.2,96.1L80.1,96l-15.2,9.4l-0.1,0.2c4.8,2,10,3,15.5,3C80.2,108.6,80.2,96.1,80.2,96.1z"/>
						<path class="st0" d="M60.7,49.3L60.7,49.3l-0.2-0.1v0.1C60.5,49.3,60.7,49.3,60.7,49.3z"/>
						<polygon class="st0" points="60.7,49.2 60.6,49.2 60.7,49.3 						"/>
						<path class="st0" d="M99.7,49.3L99.7,49.3c0.1-0.1-0.1-0.1-0.1-0.1L99.7,49.3L99.7,49.3z"/>
						<polygon class="st0" points="99.8,49.3 99.8,49.2 99.7,49.3 						"/>
						<path class="st0" d="M52.5,68.6C52.5,68.6,52.4,68.6,52.5,68.6l0,0.2l0-0.1L52.5,68.6z"/>
						<polygon class="st0" points="80.2,96.1 80.3,96 80.2,96 						"/>
						<path class="st0" d="M80.1,95.9L80.1,95.9l0.1,0.2C80.2,96.1,80.2,96,80.1,95.9L80.1,95.9z"/>
						<polygon class="st15" points="99.8,60.6 117.3,53.4 117.4,53.2 99.8,49.3 						"/>
						<polygon class="st14" points="107.9,68.6 108,68.6 117.3,53.4 99.8,60.6 						"/>
						<polygon class="st16" points="60.5,76.6 52.5,68.7 42.9,83.8 43,83.8 						"/>
						<polygon class="st0" points="107.9,68.6 108,68.6 107.9,68.6 						"/>
						<polygon class="st9" points="64.8,31.7 72.1,49.2 80.2,41.2 						"/>
						<polygon class="st17" points="95.6,31.8 88.3,49.2 99.6,49.2 						"/>
						<polygon class="st3" points="43,83.8 60.5,88 60.5,76.6 						"/>
						<polygon class="st3" points="99.9,76.6 117.4,83.8 107.9,68.6 						"/>
						<path class="st18" d="M80.2,41.2l8.1,8c0,0,7.3-17.4,7.3-17.4l0-0.2C95.5,31.6,80.2,41.2,80.2,41.2z"/>
						<path class="st19" d="M72.1,49.2l-7.3-17.4l-0.1-0.1c0,0-4,17.5-4,17.5H72.1z"/>
						<path class="st20" d="M60.5,60.5V49.3l-17.6,3.9c0,0,0,0,0,0.1L60.5,60.5z"/>
						<path class="st21" d="M88.3,88l-8.1,8l15.3,9.5c0,0,0.1,0,0.1,0L88.3,88z"/>
						<path class="st7" d="M99.7,76.7v11.2l0.1,0.1l17.5-4.2C117.2,83.8,99.7,76.6,99.7,76.7L99.7,76.7z"/>
						<path class="st22" d="M60.5,60.6v-0.1l-17.6-7.2c0,0,9.6,15.3,9.6,15.3L60.5,60.6z"/>
						<path class="st23" d="M88.3,88l7.3,17.5c0,0,0.1,0,0.1,0l4-17.5H88.3z"/>
						<path class="st12" d="M72,88H60.6c0,0,4.2,17.4,4.2,17.4l0.1-0.1L72,88L72,88z"/>
						<polygon class="st0" points="99.8,88 99.8,88 99.8,87.9 						"/>
						<polygon class="st3" points="64.8,105.3 80.1,96 72.1,88.1 						"/>
						<path class="st2" d="M94,54.9l5.6-5.6l-0.1,0l0-0.1H88.3C88.3,49.2,94,54.9,94,54.9z"/>
						<polygon class="st3" points="94,54.9 99.8,60.6 99.8,49.3 99.7,49.3 						"/>
						<polygon class="st16" points="66.3,54.9 72.1,49.2 60.7,49.2 60.7,49.3 						"/>
						<path class="st3" d="M66.3,54.9l-5.7-5.6c0,0-0.2,0.1-0.2,0.1v11.2l0.1,0L66.3,54.9z"/>
						<polygon class="st24" points="60.6,88 72,88 66.3,82.4 						"/>
						<polygon class="st25" points="99.8,87.9 99.8,76.7 94.1,82.3 						"/>
						<path class="st26" d="M66.3,82.4l-5.8-5.7c0,0,0,11.4,0,11.4C60.6,88,66.3,82.4,66.3,82.4z"/>
						<polygon class="st0" points="60.5,60.5 60.5,60.6 60.6,60.5 						"/>
						<polygon class="st27" points="94.1,82.3 88.3,88 99.8,88 99.8,87.9 						"/>
						<polygon class="st0" points="99.8,76.7 99.9,76.6 99.8,76.6 						"/>
						<polygon class="st28" points="99.8,68.6 99.8,76.6 99.9,76.6 107.9,68.6 107.9,68.6 						"/>
						<path class="st0" d="M72.1,88.1C72.1,88,72,88,72.1,88.1L72.1,88.1z"/>
						<polygon class="st29" points="99.8,68.6 107.9,68.6 99.8,60.6 						"/>
						<path class="st30" d="M80.2,96v-8h-8.1c0,0,8,8,8,8L80.2,96L80.2,96z"/>
						<polygon class="st3" points="80.2,96 80.3,96 88.3,88 80.2,88 						"/>
						<path class="st31" d="M60.5,68.6v-8l-8,7.9C52.5,68.6,60.5,68.6,60.5,68.6z"/>
						<polygon class="st2" points="60.5,68.6 52.5,68.6 52.6,68.7 52.5,68.7 60.5,76.6 						"/>
						<polygon class="st32" points="88.3,49.2 80.2,41.2 80.2,49.2 						"/>
						<path class="st33" d="M80.2,49.2v-8c0,0-8.1,8-8.1,8H80.2z"/>
						<polygon class="st3" points="80.2,88 80.2,68.6 72.1,88 						"/>
						<polygon class="st4" points="80.2,68.6 99.8,76.6 99.8,68.6 						"/>
						<polygon class="st34" points="60.6,60.5 80.2,68.6 66.3,54.9 						"/>
						<polygon class="st2" points="88.3,49.2 80.2,68.6 94,54.9 						"/>
						<polygon class="st3" points="72.1,49.2 80.2,68.6 80.2,49.2 						"/>
						<polygon class="st19" points="80.2,68.6 88.3,88 94.1,82.3 						"/>
						<polygon class="st4" points="66.3,82.4 72,88 72.1,88 80.2,68.6 						"/>
						<polygon class="st35" points="80.2,68.6 60.5,76.6 66.3,82.4 						"/>
						<path class="st4" d="M80.2,68.6l8.1-19.4c0,0-8.1,0-8.1,0V68.6z"/>
						<polygon class="st36" points="80.2,68.6 60.6,60.5 60.5,60.6 60.5,68.6 						"/>
						<polygon class="st37" points="80.2,68.6 94.1,82.3 99.8,76.7 99.8,76.6 						"/>
						<polygon class="st38" points="80.2,68.6 80.2,88 88.3,88 						"/>
						<polygon class="st4" points="80.2,68.6 72.1,49.2 66.3,54.9 						"/>
						<polygon class="st39" points="80.2,68.6 60.5,68.6 60.5,76.6 						"/>
						<polygon class="st4" points="99.8,60.6 94,54.9 80.2,68.6 						"/>
						<polygon class="st8" points="80.2,68.6 99.8,68.6 99.8,60.6 						"/>
					</g>
					<g>
						<path class="st40" d="M52.5,68.6c0,0-9.5,0-9.5,0H52.5z"/>
						<path class="st41" d="M39.8,68.6H43l9.5,0l-9.6-15.3C40.9,58,39.8,63.2,39.8,68.6c0,0,3.2,0,3.2,0H39.8z"/>
						<path class="st42" d="M52.4,68.6L52.4,68.6L43,68.6l-3.2,0c0,5.4,1.1,10.6,3.1,15.3l0.1,0l-0.1,0l9.6-15.1L52.4,68.6z"/>
					</g>
					<polygon class="st11" points="58.8,75.4 60.5,76.6 43,83.8 					"/>
					<polygon class="st43" points="94.3,106.1 95.6,105.6 80.3,96 					"/>
					<polygon class="st44" points="99.7,59.5 99.8,60.6 88.3,49.2 					"/>
					<polygon class="st2" points="99.8,76.6 99.8,60.6 100.2,61.1 					"/>
					<polygon class="st45" points="80.3,96.8 84,108.5 80.2,108.6 					"/>
					<polygon class="st5" points="56.8,91.8 58.4,99.7 51.7,96.8 					"/>
					<polygon class="st7" points="88.3,49.2 80.2,49.2 72.1,49.2 79.9,47.2 					"/>
					<polygon class="st7" points="60.5,76.6 72,88 64.7,83.9 					"/>
					<polygon class="st46" points="40.3,74.3 44.6,68.8 39.8,68.6 					"/>
					<polygon class="st2" points="80.2,49.2 80.2,88 84.2,49.4 					"/>
					<polygon class="st47" points="60.5,88 67,99.3 72,88 					"/>
				</g>
			</g>
		</g>
		<path class="st2" d="M94,54.9l5.6-5.6l-0.1,0l0-0.1H88.3C88.3,49.2,94,54.9,94,54.9z"/>
		<polygon class="st2" points="60.5,68.6 52.5,68.6 52.6,68.7 52.5,68.7 60.5,76.6 		"/>
		<polygon class="st2" points="88.3,49.2 80.2,68.6 94,54.9 		"/>
	</g>
</g>
</svg>
