<?xml version="1.0" encoding="utf-8"?>
<!-- Generator: Adobe Illustrator 24.3.0, SVG Export Plug-In . SVG Version: 6.00 Build 0)  -->
<svg version="1.1" id="レイヤー_1" xmlns="http://www.w3.org/2000/svg" xmlns:xlink="http://www.w3.org/1999/xlink" x="0px"
	 y="0px" viewBox="0 0 385 140" style="enable-background:new 0 0 385 140;" xml:space="preserve">
<style type="text/css">
	.st0{fill:#3FC9FF;}
	.st1{fill:#B4B4B4;}
	.st2{fill:#FFFFFF;}
	.st3{fill:#FFD9DE;}
	.st4{fill:#FDF4F5;}
	.st5{fill:#E27C88;}
	.st6{fill:#C45E6A;}
	.st7{fill:#E2A6AD;}
	.st8{fill:#FFFEFE;}
	.st9{fill:#DC8891;}
	.st10{fill:#B24C58;}
	.st11{fill:#A55A62;}
	.st12{fill:#A35D65;}
	.st13{fill:#EBA8AF;}
	.st14{fill:#DF8E97;}
	.st15{fill:#FFEFF1;}
	.st16{fill:#E39EA6;}
	.st17{fill:#FFC4CB;}
	.st18{fill:#FFF1F2;}
	.st19{fill:#FFE3E5;}
	.st20{fill:#FED9DD;}
	.st21{fill:#E897A0;}
	.st22{fill:#FFCFD4;}
	.st23{fill:#F79FA9;}
	.st24{fill:#FFF2F3;}
	.st25{fill:#FFEBED;}
	.st26{fill:#F1B7BD;}
	.st27{fill:#FFCBD0;}
	.st28{fill:#EA9BA4;}
	.st29{fill:#FF909D;}
	.st30{fill:#F4BBC1;}
	.st31{fill:#FFDDE1;}
	.st32{fill:#FF94A0;}
	.st33{fill:#FDD9DD;}
	.st34{fill:#FFFFFB;}
	.st35{fill:#FFC5CB;}
	.st36{fill:#FEF1F2;}
	.st37{fill:#F4FAFC;}
	.st38{fill:#272727;}
	.st39{fill:#B37178;}
	.st40{fill:#B1404D;}
	.st41{fill:#9A2431;}
	.st42{fill:#FF9EA8;}
	.st43{fill:#F7DADD;}
	.st44{fill:#9E2835;}
	.st45{fill:#7B323A;}
	.st46{fill:#BF7C83;}
</style>
<path class="st0" d="M-1720.8,379.1c0,0-0.1,0-0.1,0l0,0.2L-1720.8,379.1z"/>
<path class="st0" d="M-1703.9,379.1C-1704,379.1-1704,379.1-1703.9,379.1L-1703.9,379.1L-1703.9,379.1z"/>
<g>
	<g id="タイトル_1_" transform="translate(-7381 -336)">
		<path class="st1" d="M7683.2,339.5h-219.5c-40.4,0-73.2,29.8-73.2,66.5s32.8,66.5,73.2,66.5h219.5c40.4,0,73.2-29.8,73.2-66.5
			S7723.6,339.5,7683.2,339.5z"/>
	</g>
	<g>
		<path class="st2" d="M149.2,45v48.2h28.7v6.1h-35.9V45H149.2z"/>
		<path class="st2" d="M210.9,70.4c0,4.3-3.5,7.8-7.8,7.8c-4.3,0-7.8-3.5-7.8-7.8c0-4.3,3.5-7.8,7.8-7.8
			C207.6,62.6,210.9,66.2,210.9,70.4z"/>
		<path class="st2" d="M258.8,45v6.1h-28.4v17.3h24.9v6.1h-24.9v24.9h-7.2V45H258.8z"/>
		<path class="st2" d="M284,70.4c0,4.3-3.5,7.8-7.8,7.8c-4.3,0-7.8-3.5-7.8-7.8c0-4.3,3.5-7.8,7.8-7.8C280.7,62.6,284,66.2,284,70.4
			z"/>
		<path class="st2" d="M329.1,52.7c-2.8-1.9-6-2.9-9.8-2.9c-3.2,0-6,0.6-8.3,1.8c-2.3,1.2-4.2,2.9-5.7,4.9c-1.5,2.1-2.6,4.4-3.3,7
			c-0.7,2.6-1.1,5.4-1.1,8.2c0,3.1,0.4,6,1.1,8.8c0.7,2.8,1.8,5.2,3.3,7.2c1.5,2.1,3.4,3.7,5.7,4.9c2.3,1.2,5.1,1.8,8.4,1.8
			c2.4,0,4.5-0.4,6.3-1.2c1.8-0.8,3.4-1.9,4.8-3.3c1.3-1.4,2.4-3.1,3.2-5c0.8-1.9,1.2-4,1.4-6.2h7.2c-0.7,6.8-3.1,12.2-7.1,16
			c-4,3.8-9.5,5.7-16.4,5.7c-4.2,0-7.9-0.7-11-2.2c-3.1-1.4-5.8-3.4-7.8-6c-2.1-2.5-3.6-5.5-4.7-9c-1-3.4-1.6-7.1-1.6-11.1
			c0-4,0.6-7.7,1.7-11.1c1.1-3.5,2.7-6.5,4.9-9.1c2.2-2.6,4.8-4.6,8.1-6.1c3.2-1.5,6.9-2.2,11.1-2.2c2.8,0,5.5,0.4,8.1,1.1
			c2.5,0.8,4.8,1.9,6.8,3.3s3.6,3.3,4.9,5.5c1.3,2.2,2.2,4.8,2.6,7.6h-7.2C333.6,57.5,331.8,54.6,329.1,52.7z"/>
	</g>
	<g>
		<path class="st0" d="M95.7,32.1C95.6,32.1,95.6,32.1,95.7,32.1l-0.1,0.1L95.7,32.1z"/>
		<path class="st3" d="M95.5,32.1c-4.7-1.9-9.9-3-15.3-3v12.6L95.5,32.1z"/>
		<path class="st4" d="M80.2,41.7c0,0,0-12.6,0-12.6c-5.5,0-10.7,1.1-15.5,3l0,0.1L80.2,41.7z"/>
		<path class="st0" d="M64.7,32.1C64.7,32.1,64.7,32.2,64.7,32.1L64.7,32.1L64.7,32.1z"/>
		<path class="st5" d="M51.6,40.8c-3.7,3.7-6.7,8-8.7,12.9l17.6-3.9v-0.1h0.1L51.6,40.8z"/>
		<path class="st6" d="M51.6,40.8l9,8.9h0.1l3.9-17.5C59.8,34.2,55.3,37.1,51.6,40.8z"/>
		<path class="st7" d="M108,69.1h12.6c0-5.4-1.1-10.6-3.1-15.3l-0.2,0.1L108,69.1z"/>
		<path class="st8" d="M99.6,49.7h0.2c0,0,9-8.9,9-8.9c-3.7-3.7-8.2-6.6-13.1-8.7l-0.1,0.1L99.6,49.7z"/>
		<path class="st9" d="M99.8,49.8l17.6,3.9l-0.1,0.1l0.2-0.1c-2-4.9-5-9.3-8.8-13l-9,8.9V49.8z"/>
		<path class="st10" d="M107.9,69.1l9.4,15.2l0.2,0.1c2-4.7,3.1-9.9,3.1-15.3L107.9,69.1L107.9,69.1z"/>
		<path class="st11" d="M99.8,88.5l-4,17.5c4.9-2,9.3-5,13-8.6L99.8,88.5L99.8,88.5z"/>
		<path class="st12" d="M80.2,96.6v12.5c5.4,0,10.6-1.1,15.4-3L80.2,96.6L80.2,96.6z"/>
		<path class="st13" d="M60.5,88.5L43,84.3l-0.1,0c2,4.9,5,9.3,8.8,13C51.7,97.3,60.5,88.5,60.5,88.5z"/>
		<path class="st7" d="M64.7,105.9l-4.2-17.3l-8.9,8.8c3.7,3.7,8.2,6.6,13.1,8.7L64.7,105.9L64.7,105.9z"/>
		<path class="st14" d="M117.5,84.4l-0.2-0.1c0,0-17.5,4.2-17.5,4.2l8.9,8.8C112.5,93.7,115.5,89.3,117.5,84.4z"/>
		<path class="st5" d="M80.2,96.6l-0.1-0.1l-15.2,9.4l-0.1,0.2c4.8,2,10,3,15.5,3C80.2,109.1,80.2,96.6,80.2,96.6z"/>
		<path class="st0" d="M60.7,49.8L60.7,49.8l-0.2-0.1v0.1C60.5,49.8,60.7,49.8,60.7,49.8z"/>
		<polygon class="st0" points="60.7,49.7 60.6,49.7 60.7,49.8 		"/>
		<path class="st0" d="M99.7,49.8L99.7,49.8c0.1-0.1-0.1-0.1-0.1-0.1L99.7,49.8L99.7,49.8z"/>
		<polygon class="st0" points="99.8,49.8 99.8,49.7 99.7,49.8 		"/>
		<path class="st0" d="M52.5,69.1C52.5,69.1,52.4,69.1,52.5,69.1l0,0.2l0-0.1L52.5,69.1z"/>
		<polygon class="st0" points="80.2,96.6 80.3,96.5 80.2,96.5 		"/>
		<path class="st0" d="M80.1,96.4L80.1,96.4l0.1,0.2C80.2,96.6,80.2,96.5,80.1,96.4L80.1,96.4z"/>
		<polygon class="st15" points="99.8,61 117.3,53.9 117.4,53.7 99.8,49.8 		"/>
		<polygon class="st14" points="107.9,69.1 108,69.1 117.3,53.9 99.8,61 		"/>
		<polygon class="st16" points="60.5,77.1 52.5,69.2 42.9,84.3 43,84.3 		"/>
		<polygon class="st0" points="107.9,69.1 108,69.1 107.9,69.1 		"/>
		<polygon class="st9" points="64.8,32.2 72.1,49.7 80.2,41.7 		"/>
		<polygon class="st17" points="95.6,32.3 88.3,49.7 99.6,49.7 		"/>
		<polygon class="st3" points="43,84.3 60.5,88.5 60.5,77.1 		"/>
		<polygon class="st3" points="99.9,77.1 117.4,84.3 107.9,69.1 		"/>
		<path class="st18" d="M80.2,41.7l8.1,8c0,0,7.3-17.4,7.3-17.4l0-0.2C95.5,32.1,80.2,41.7,80.2,41.7z"/>
		<path class="st19" d="M72.1,49.7l-7.3-17.4l-0.1-0.1c0,0-4,17.5-4,17.5H72.1z"/>
		<path class="st20" d="M60.5,61V49.8l-17.6,3.9c0,0,0,0,0,0.1L60.5,61z"/>
		<path class="st11" d="M88.3,88.5l-8.1,8l15.3,9.5c0,0,0.1,0,0.1,0L88.3,88.5z"/>
		<path class="st7" d="M99.7,77.2v11.2l0.1,0.1l17.5-4.2C117.2,84.3,99.7,77.1,99.7,77.2L99.7,77.2z"/>
		<path class="st21" d="M60.5,61.1V61l-17.6-7.2c0,0,9.6,15.3,9.6,15.3L60.5,61.1z"/>
		<path class="st22" d="M88.3,88.5l7.3,17.5c0,0,0.1,0,0.1,0l4-17.5H88.3z"/>
		<path class="st12" d="M72,88.5H60.6c0,0,4.2,17.4,4.2,17.4l0.1-0.1L72,88.5L72,88.5z"/>
		<polygon class="st0" points="99.8,88.5 99.8,88.5 99.8,88.4 		"/>
		<polygon class="st3" points="64.8,105.8 80.1,96.5 72.1,88.6 		"/>
		<path class="st2" d="M94,55.4l5.6-5.6l-0.1,0l0-0.1H88.3C88.3,49.7,94,55.4,94,55.4z"/>
		<polygon class="st3" points="94,55.4 99.8,61 99.8,49.8 99.7,49.8 		"/>
		<polygon class="st16" points="66.3,55.4 72.1,49.7 60.7,49.7 60.7,49.8 		"/>
		<path class="st3" d="M66.3,55.4l-5.7-5.6c0,0-0.2,0.1-0.2,0.1V61l0.1,0L66.3,55.4z"/>
		<polygon class="st23" points="60.6,88.5 72,88.5 66.3,82.8 		"/>
		<polygon class="st24" points="99.8,88.4 99.8,77.2 94.1,82.8 		"/>
		<path class="st25" d="M66.3,82.8l-5.8-5.7c0,0,0,11.4,0,11.4C60.6,88.5,66.3,82.8,66.3,82.8z"/>
		<polygon class="st0" points="60.5,61 60.5,61.1 60.6,61 		"/>
		<polygon class="st26" points="94.1,82.8 88.3,88.5 99.8,88.5 99.8,88.4 		"/>
		<polygon class="st0" points="99.8,77.2 99.9,77.1 99.8,77.1 		"/>
		<polygon class="st27" points="99.8,69.1 99.8,77.1 99.9,77.1 107.9,69.1 107.9,69.1 		"/>
		<path class="st0" d="M72.1,88.6C72.1,88.5,72,88.5,72.1,88.6L72.1,88.6z"/>
		<polygon class="st28" points="99.8,69.1 107.9,69.1 99.8,61 		"/>
		<path class="st29" d="M80.2,96.5v-8h-8.1c0,0,8,8,8,8L80.2,96.5L80.2,96.5z"/>
		<polygon class="st3" points="80.2,96.5 80.3,96.5 88.3,88.5 80.2,88.5 		"/>
		<path class="st30" d="M60.5,69.1v-8l-8,7.9C52.5,69.1,60.5,69.1,60.5,69.1z"/>
		<polygon class="st2" points="60.5,69.1 52.5,69.1 52.6,69.2 52.5,69.2 60.5,77.1 		"/>
		<polygon class="st31" points="88.3,49.7 80.2,41.7 80.2,49.7 		"/>
		<path class="st32" d="M80.2,49.7v-8c0,0-8.1,8-8.1,8H80.2z"/>
		<polygon class="st3" points="80.2,88.5 80.2,69.1 72.1,88.5 		"/>
		<polygon class="st4" points="80.2,69.1 99.8,77.1 99.8,69.1 		"/>
		<polygon class="st33" points="60.6,61 80.2,69.1 66.3,55.4 		"/>
		<polygon class="st2" points="88.3,49.7 80.2,69.1 94,55.4 		"/>
		<polygon class="st3" points="72.1,49.7 80.2,69.1 80.2,49.7 		"/>
		<polygon class="st19" points="80.2,69.1 88.3,88.5 94.1,82.8 		"/>
		<polygon class="st4" points="66.3,82.8 72,88.5 72.1,88.5 80.2,69.1 		"/>
		<polygon class="st34" points="80.2,69.1 60.5,77.1 66.3,82.8 		"/>
		<path class="st4" d="M80.2,69.1l8.1-19.4c0,0-8.1,0-8.1,0V69.1z"/>
		<polygon class="st35" points="80.2,69.1 60.6,61 60.5,61.1 60.5,69.1 		"/>
		<polygon class="st36" points="80.2,69.1 94.1,82.8 99.8,77.2 99.8,77.1 		"/>
		<polygon class="st37" points="80.2,69.1 80.2,88.5 88.3,88.5 		"/>
		<polygon class="st4" points="80.2,69.1 72.1,49.7 66.3,55.4 		"/>
		<polygon class="st25" points="80.2,69.1 60.5,69.1 60.5,77.1 		"/>
		<polygon class="st4" points="99.8,61.1 94,55.4 80.2,69.1 		"/>
		<polygon class="st8" points="80.2,69.1 99.8,69.1 99.8,61.1 		"/>
		<g>
			<path class="st38" d="M52.5,69.1c0,0-9.5,0-9.5,0H52.5z"/>
			<path class="st39" d="M39.8,69.1H43l9.5,0l-9.6-15.3C40.9,58.5,39.8,63.7,39.8,69.1c0,0,3.2,0,3.2,0H39.8z"/>
			<path class="st40" d="M52.4,69.1L52.4,69.1L43,69.1l-3.2,0c0,5.4,1.1,10.6,3.1,15.3l0.1,0l-0.1,0l9.6-15.1L52.4,69.1z"/>
		</g>
		<polygon class="st11" points="58.8,75.9 60.5,77.1 43,84.3 		"/>
		<polygon class="st41" points="94.3,106.6 95.6,106.1 80.3,96.5 		"/>
		<polygon class="st42" points="99.7,60 99.8,61.1 88.3,49.7 		"/>
		<polygon class="st43" points="99.8,77.1 99.8,61.1 100.2,61.6 		"/>
		<polygon class="st44" points="80.3,97.3 84,109 80.2,109.1 		"/>
		<polygon class="st5" points="56.8,92.3 58.4,100.1 51.7,97.3 		"/>
		<polygon class="st7" points="88.3,49.7 80.2,49.7 72.1,49.7 79.9,47.7 		"/>
		<polygon class="st7" points="60.5,77.1 72,88.5 64.7,84.4 		"/>
		<polygon class="st45" points="40.3,74.8 44.6,69.3 39.8,69.1 		"/>
		<polygon class="st2" points="80.2,49.7 80.2,88.5 84.2,49.9 		"/>
		<polygon class="st46" points="60.5,88.5 67,99.8 72,88.5 		"/>
		<path class="st2" d="M94,55.4l5.6-5.6l-0.1,0l0-0.1H88.3C88.3,49.7,94,55.4,94,55.4z"/>
		<polygon class="st2" points="60.5,69.1 52.5,69.1 52.6,69.2 52.5,69.2 60.5,77.1 		"/>
		<polygon class="st2" points="88.3,49.7 80.2,69.1 94,55.4 		"/>
	</g>
</g>
</svg>
