<?xml version="1.0" encoding="utf-8"?>
<!-- Generator: Adobe Illustrator 24.3.0, SVG Export Plug-In . SVG Version: 6.00 Build 0)  -->
<svg version="1.1" id="レイヤー_1" xmlns="http://www.w3.org/2000/svg" xmlns:xlink="http://www.w3.org/1999/xlink" x="0px"
	 y="0px" viewBox="0 0 385 140" style="enable-background:new 0 0 385 140;" xml:space="preserve">
<style type="text/css">
	.st0{fill:#3FC9FF;}
	.st1{fill:#B4B4B4;}
	.st2{fill:#FFFFFF;}
	.st3{fill:#EEDBFF;}
	.st4{fill:#F9F5FE;}
	.st5{fill:#B880E6;}
	.st6{fill:#9A62C8;}
	.st7{fill:#CAA9E5;}
	.st8{fill:#FEFEFF;}
	.st9{fill:#B98BDF;}
	.st10{fill:#8850B6;}
	.st11{fill:#855CA7;}
	.st12{fill:#8660A6;}
	.st13{fill:#CFABEE;}
	.st14{fill:#BD91E2;}
	.st15{fill:#F8F0FF;}
	.st16{fill:#C7A1E6;}
	.st17{fill:#E5C7FF;}
	.st18{fill:#F8F2FF;}
	.st19{fill:#F2E4FF;}
	.st20{fill:#EEDCFF;}
	.st21{fill:#A077C2;}
	.st22{fill:#C69AEB;}
	.st23{fill:#EAD2FF;}
	.st24{fill:#D2A2FA;}
	.st25{fill:#F9F3FF;}
	.st26{fill:#F6ECFF;}
	.st27{fill:#D8B9F3;}
	.st28{fill:#E8CDFF;}
	.st29{fill:#C99EED;}
	.st30{fill:#CF95FF;}
	.st31{fill:#DCBDF6;}
	.st32{fill:#EFDFFF;}
	.st33{fill:#D199FF;}
	.st34{fill:#EDDAFE;}
	.st35{fill:#F6F6FF;}
	.st36{fill:#E5C9FF;}
	.st37{fill:#FDF0FC;}
	.st38{fill:#FAF6FE;}
	.st39{fill:#F5ECFF;}
	.st40{fill:#FFFFF2;}
	.st41{fill:#272727;}
	.st42{fill:#9874B6;}
	.st43{fill:#8244B5;}
	.st44{fill:#69299F;}
	.st45{fill:#D5A3FF;}
	.st46{fill:#6D2DA3;}
	.st47{fill:#5D357E;}
	.st48{fill:#A37FC2;}
</style>
<path class="st0" d="M-1897.9,70.2c0,0-0.1,0-0.1,0l0,0.2L-1897.9,70.2z"/>
<path class="st0" d="M-1881.1,70.2C-1881.1,70.2-1881.1,70.2-1881.1,70.2L-1881.1,70.2L-1881.1,70.2z"/>
<g>
	<g id="タイトル_1_" transform="translate(-7381 -336)">
		<path class="st1" d="M7683.2,339.5h-219.5c-40.4,0-73.2,29.8-73.2,66.5s32.8,66.5,73.2,66.5h219.5c40.4,0,73.2-29.8,73.2-66.5
			S7723.6,339.5,7683.2,339.5z"/>
	</g>
	<g>
		<path class="st2" d="M168.4,52.4c-2.4-1.7-5.5-2.6-9.2-2.6c-1.5,0-3,0.2-4.5,0.5c-1.5,0.3-2.8,0.8-3.9,1.5
			c-1.1,0.7-2.1,1.7-2.7,2.8c-0.7,1.2-1,2.7-1,4.4c0,1.7,0.5,3,1.5,4.1c1,1,2.3,1.9,4,2.5c1.6,0.7,3.5,1.2,5.6,1.6
			c2.1,0.4,4.2,0.9,6.3,1.4c2.2,0.5,4.3,1.1,6.3,1.8c2.1,0.7,3.9,1.6,5.6,2.8c1.6,1.2,3,2.6,4,4.4c1,1.8,1.5,4,1.5,6.7
			c0,2.9-0.6,5.4-1.9,7.4c-1.3,2.1-3,3.7-5,5c-2,1.3-4.3,2.2-6.8,2.8c-2.5,0.6-5,0.9-7.5,0.9c-3,0-5.9-0.4-8.6-1.1
			c-2.7-0.8-5.1-1.9-7.1-3.5c-2.1-1.5-3.7-3.5-4.9-5.9c-1.2-2.4-1.8-5.3-1.8-8.5h6.8c0,2.3,0.4,4.2,1.3,5.9c0.9,1.6,2.1,3,3.5,4.1
			c1.4,1.1,3.1,1.9,5.1,2.4c1.9,0.5,3.9,0.8,5.9,0.8c1.6,0,3.3-0.2,4.9-0.5c1.6-0.3,3.1-0.8,4.4-1.6c1.3-0.7,2.4-1.7,3.2-3
			c0.8-1.3,1.2-2.9,1.2-4.9c0-1.9-0.5-3.4-1.5-4.6c-1-1.2-2.3-2.1-4-2.9c-1.6-0.7-3.5-1.3-5.6-1.8c-2.1-0.5-4.2-0.9-6.3-1.4
			c-2.2-0.5-4.3-1-6.3-1.7c-2.1-0.6-3.9-1.5-5.6-2.5c-1.6-1-3-2.4-4-4c-1-1.6-1.5-3.7-1.5-6.2c0-2.7,0.6-5.1,1.7-7.1
			c1.1-2,2.6-3.6,4.4-4.9c1.8-1.3,4-2.3,6.3-2.9c2.4-0.6,4.8-1,7.3-1c2.8,0,5.4,0.3,7.8,1c2.4,0.7,4.5,1.7,6.3,3.1
			c1.8,1.4,3.2,3.2,4.3,5.4c1,2.2,1.6,4.7,1.7,7.7h-6.8C172.2,57,170.8,54.2,168.4,52.4z"/>
		<path class="st2" d="M210.9,70.4c0,4.3-3.5,7.8-7.8,7.8c-4.3,0-7.8-3.5-7.8-7.8c0-4.3,3.5-7.8,7.8-7.8
			C207.6,62.6,210.9,66.2,210.9,70.4z"/>
		<path class="st2" d="M258.8,45v6.1h-28.4v17.3h24.9v6.1h-24.9v24.9h-7.2V45H258.8z"/>
		<path class="st2" d="M284,70.4c0,4.3-3.5,7.8-7.8,7.8c-4.3,0-7.8-3.5-7.8-7.8c0-4.3,3.5-7.8,7.8-7.8C280.7,62.6,284,66.2,284,70.4
			z"/>
		<path class="st2" d="M329.1,52.7c-2.8-1.9-6-2.9-9.8-2.9c-3.2,0-6,0.6-8.3,1.8s-4.2,2.8-5.7,4.9c-1.5,2.1-2.6,4.4-3.3,7
			c-0.7,2.6-1.1,5.4-1.1,8.2c0,3.1,0.4,6,1.1,8.8c0.7,2.8,1.8,5.2,3.3,7.2c1.5,2.1,3.4,3.7,5.7,4.9c2.3,1.2,5.1,1.8,8.4,1.8
			c2.4,0,4.5-0.4,6.3-1.2c1.8-0.8,3.4-1.9,4.8-3.3c1.3-1.4,2.4-3.1,3.2-5c0.8-1.9,1.2-4,1.4-6.2h7.2c-0.7,6.8-3.1,12.2-7.1,16
			c-4,3.8-9.5,5.7-16.4,5.7c-4.2,0-7.9-0.7-11-2.2c-3.1-1.4-5.8-3.4-7.8-6c-2.1-2.5-3.6-5.5-4.7-9c-1-3.4-1.6-7.1-1.6-11.1
			c0-4,0.6-7.7,1.7-11.1c1.1-3.5,2.7-6.5,4.9-9.1c2.2-2.6,4.8-4.6,8.1-6.1c3.2-1.5,6.9-2.2,11.1-2.2c2.8,0,5.5,0.4,8.1,1.1
			c2.5,0.8,4.8,1.9,6.8,3.3c2,1.5,3.6,3.3,4.9,5.5c1.3,2.2,2.2,4.8,2.6,7.6h-7.2C333.6,57.5,331.8,54.6,329.1,52.7z"/>
	</g>
	<g>
		<path class="st0" d="M95.7,32.9C95.6,32.9,95.6,32.9,95.7,32.9l-0.1,0.1L95.7,32.9z"/>
		<path class="st3" d="M95.5,32.9c-4.7-1.9-9.9-3-15.3-3v12.6L95.5,32.9z"/>
		<path class="st4" d="M80.2,42.5c0,0,0-12.6,0-12.6c-5.5,0-10.7,1.1-15.5,3l0,0.1L80.2,42.5z"/>
		<path class="st0" d="M64.7,32.9C64.7,33,64.7,33,64.7,32.9L64.7,32.9L64.7,32.9z"/>
		<path class="st5" d="M51.6,41.6c-3.7,3.7-6.7,8-8.7,12.9l17.6-3.9v-0.1h0.1L51.6,41.6z"/>
		<path class="st6" d="M51.6,41.6l9,8.9h0.1L64.7,33C59.8,35,55.3,38,51.6,41.6z"/>
		<path class="st7" d="M108,69.9h12.6c0-5.4-1.1-10.6-3.1-15.3l-0.2,0.1L108,69.9z"/>
		<path class="st8" d="M99.6,50.5h0.2c0,0,9-8.9,9-8.9c-3.7-3.7-8.2-6.6-13.1-8.7l-0.1,0.1L99.6,50.5z"/>
		<path class="st9" d="M99.8,50.6l17.6,3.9l-0.1,0.1l0.2-0.1c-2-4.9-5-9.3-8.8-13l-9,8.9V50.6z"/>
		<path class="st10" d="M107.9,69.9l9.4,15.2l0.2,0.1c2-4.7,3.1-9.9,3.1-15.3L107.9,69.9L107.9,69.9z"/>
		<path class="st11" d="M99.8,89.3l-4,17.5c4.9-2,9.3-5,13-8.6L99.8,89.3L99.8,89.3z"/>
		<path class="st12" d="M80.2,97.4v12.5c5.4,0,10.6-1.1,15.4-3L80.2,97.4L80.2,97.4z"/>
		<path class="st13" d="M60.5,89.3L43,85.1l-0.1,0c2,4.9,5,9.3,8.8,13C51.7,98.1,60.5,89.4,60.5,89.3z"/>
		<path class="st7" d="M64.7,106.7l-4.2-17.3l-8.9,8.8c3.7,3.7,8.2,6.6,13.1,8.7L64.7,106.7L64.7,106.7z"/>
		<path class="st14" d="M117.5,85.2l-0.2-0.1c0,0-17.5,4.2-17.5,4.2l8.9,8.8C112.5,94.5,115.5,90.1,117.5,85.2z"/>
		<path class="st5" d="M80.2,97.4l-0.1-0.1l-15.2,9.4l-0.1,0.2c4.8,2,10,3,15.5,3C80.2,109.9,80.2,97.4,80.2,97.4z"/>
		<path class="st0" d="M60.7,50.6L60.7,50.6l-0.2-0.1v0.1C60.5,50.6,60.7,50.6,60.7,50.6z"/>
		<polygon class="st0" points="60.7,50.5 60.6,50.5 60.7,50.6 		"/>
		<path class="st0" d="M99.7,50.6L99.7,50.6c0.1-0.1-0.1-0.1-0.1-0.1L99.7,50.6L99.7,50.6z"/>
		<polygon class="st0" points="99.8,50.6 99.8,50.5 99.7,50.6 		"/>
		<path class="st0" d="M52.5,69.9C52.5,69.9,52.4,69.9,52.5,69.9l0,0.2l0-0.1L52.5,69.9z"/>
		<polygon class="st0" points="80.2,97.4 80.3,97.3 80.2,97.3 		"/>
		<path class="st0" d="M80.1,97.2L80.1,97.2l0.1,0.2C80.2,97.4,80.2,97.3,80.1,97.2L80.1,97.2z"/>
		<polygon class="st15" points="99.8,61.9 117.3,54.7 117.4,54.5 99.8,50.6 		"/>
		<polygon class="st14" points="107.9,69.9 108,69.9 117.3,54.7 99.8,61.9 		"/>
		<polygon class="st16" points="60.5,77.9 52.5,70 42.9,85.1 43,85.1 		"/>
		<polygon class="st0" points="107.9,69.9 108,69.9 107.9,69.9 		"/>
		<polygon class="st9" points="64.8,33 72.1,50.5 80.2,42.5 		"/>
		<polygon class="st17" points="95.6,33.1 88.3,50.5 99.6,50.5 		"/>
		<polygon class="st3" points="43,85.1 60.5,89.3 60.5,77.9 		"/>
		<polygon class="st3" points="99.9,77.9 117.4,85.1 107.9,69.9 		"/>
		<path class="st18" d="M80.2,42.5l8.1,8c0,0,7.3-17.4,7.3-17.4l0-0.2C95.5,32.9,80.2,42.5,80.2,42.5z"/>
		<path class="st19" d="M72.1,50.5L64.8,33L64.7,33c0,0-4,17.5-4,17.5H72.1z"/>
		<path class="st20" d="M60.5,61.8V50.6l-17.6,3.9c0,0,0,0,0,0.1L60.5,61.8z"/>
		<path class="st21" d="M88.3,89.3l-8.1,8l15.3,9.5c0,0,0.1,0,0.1,0L88.3,89.3z"/>
		<path class="st7" d="M99.7,78v11.2l0.1,0.1l17.5-4.2C117.2,85.1,99.7,77.9,99.7,78L99.7,78z"/>
		<path class="st22" d="M60.5,61.9v-0.1l-17.6-7.2c0,0,9.6,15.3,9.6,15.3L60.5,61.9z"/>
		<path class="st23" d="M88.3,89.3l7.3,17.5c0,0,0.1,0,0.1,0l4-17.5H88.3z"/>
		<path class="st12" d="M72,89.3H60.6c0,0,4.2,17.4,4.2,17.4l0.1-0.1L72,89.3L72,89.3z"/>
		<polygon class="st0" points="99.8,89.3 99.8,89.3 99.8,89.2 		"/>
		<polygon class="st3" points="64.8,106.7 80.1,97.3 72.1,89.4 		"/>
		<path class="st2" d="M94,56.2l5.6-5.6l-0.1,0l0-0.1H88.3C88.3,50.5,94,56.2,94,56.2z"/>
		<polygon class="st3" points="94,56.2 99.8,61.9 99.8,50.6 99.7,50.6 		"/>
		<polygon class="st16" points="66.3,56.2 72.1,50.5 60.7,50.5 60.7,50.6 		"/>
		<path class="st3" d="M66.3,56.2l-5.7-5.6c0,0-0.2,0.1-0.2,0.1v11.2l0.1,0L66.3,56.2z"/>
		<polygon class="st24" points="60.6,89.3 72,89.3 66.3,83.7 		"/>
		<polygon class="st25" points="99.8,89.2 99.8,78 94.1,83.6 		"/>
		<path class="st26" d="M66.3,83.7l-5.8-5.7c0,0,0,11.4,0,11.4C60.6,89.3,66.3,83.7,66.3,83.7z"/>
		<polygon class="st0" points="60.5,61.8 60.5,61.9 60.6,61.8 		"/>
		<polygon class="st27" points="94.1,83.6 88.3,89.3 99.8,89.3 99.8,89.2 		"/>
		<polygon class="st0" points="99.8,78 99.9,77.9 99.8,77.9 		"/>
		<polygon class="st28" points="99.8,69.9 99.8,77.9 99.9,77.9 107.9,69.9 107.9,69.9 		"/>
		<path class="st0" d="M72.1,89.4C72.1,89.3,72,89.3,72.1,89.4L72.1,89.4z"/>
		<polygon class="st29" points="99.8,69.9 107.9,69.9 99.8,61.9 		"/>
		<path class="st30" d="M80.2,97.3v-8h-8.1c0,0,8,8,8,8L80.2,97.3L80.2,97.3z"/>
		<polygon class="st3" points="80.2,97.3 80.3,97.3 88.3,89.3 80.2,89.3 		"/>
		<path class="st31" d="M60.5,69.9v-8l-8,7.9C52.5,69.9,60.5,69.9,60.5,69.9z"/>
		<polygon class="st2" points="60.5,69.9 52.5,69.9 52.6,70 52.5,70 60.5,77.9 		"/>
		<polygon class="st32" points="88.3,50.5 80.2,42.5 80.2,50.5 		"/>
		<path class="st33" d="M80.2,50.5v-8c0,0-8.1,8-8.1,8H80.2z"/>
		<polygon class="st3" points="80.2,89.3 80.2,69.9 72.1,89.3 		"/>
		<polygon class="st4" points="80.2,69.9 99.8,77.9 99.8,69.9 		"/>
		<polygon class="st34" points="60.6,61.8 80.2,69.9 66.3,56.2 		"/>
		<polygon class="st2" points="88.3,50.5 80.2,69.9 94,56.2 		"/>
		<polygon class="st3" points="72.1,50.5 80.2,69.9 80.2,50.5 		"/>
		<polygon class="st19" points="80.2,69.9 88.3,89.3 94.1,83.6 		"/>
		<polygon class="st4" points="66.3,83.7 72,89.3 72.1,89.3 80.2,69.9 		"/>
		<polygon class="st2" points="80.2,69.9 60.5,77.9 66.3,83.7 		"/>
		<path class="st35" d="M80.2,69.9l8.1-19.4c0,0-8.1,0-8.1,0V69.9z"/>
		<polygon class="st36" points="80.2,69.9 60.6,61.8 60.5,61.9 60.5,69.9 		"/>
		<polygon class="st37" points="80.2,69.9 94.1,83.6 99.8,78 99.8,77.9 		"/>
		<polygon class="st38" points="80.2,69.9 80.2,89.3 88.3,89.3 		"/>
		<polygon class="st35" points="80.2,69.9 72.1,50.5 66.3,56.2 		"/>
		<polygon class="st39" points="80.2,69.9 60.5,69.9 60.5,77.9 		"/>
		<polygon class="st4" points="99.8,61.9 94,56.2 80.2,69.9 		"/>
		<polygon class="st40" points="80.2,69.9 99.8,69.9 99.8,61.9 		"/>
		<g>
			<path class="st41" d="M52.5,69.9c0,0-9.5,0-9.5,0H52.5z"/>
			<path class="st42" d="M39.8,69.9H43l9.5,0l-9.6-15.3C40.9,59.3,39.8,64.5,39.8,69.9c0,0,3.2,0,3.2,0H39.8z"/>
			<path class="st43" d="M52.4,69.9L52.4,69.9L43,69.9l-3.2,0c0,5.4,1.1,10.6,3.1,15.3l0.1,0l-0.1,0L52.5,70L52.4,69.9z"/>
		</g>
		<polygon class="st11" points="58.8,76.7 60.5,77.9 43,85.1 		"/>
		<polygon class="st44" points="94.3,107.4 95.6,106.9 80.3,97.3 		"/>
		<polygon class="st45" points="99.7,60.8 99.8,61.9 88.3,50.5 		"/>
		<polygon class="st2" points="99.8,77.9 99.8,61.9 100.2,62.4 		"/>
		<polygon class="st46" points="80.3,98.1 84,109.8 80.2,109.9 		"/>
		<polygon class="st5" points="56.8,93.1 58.4,101 51.7,98.1 		"/>
		<polygon class="st7" points="88.3,50.5 80.2,50.5 72.1,50.5 79.9,48.5 		"/>
		<polygon class="st7" points="60.5,77.9 72,89.3 64.7,85.2 		"/>
		<polygon class="st47" points="40.3,75.6 44.6,70.1 39.8,69.9 		"/>
		<polygon class="st2" points="80.2,50.5 80.2,89.3 84.2,50.7 		"/>
		<polygon class="st48" points="60.5,89.3 67,100.6 72,89.3 		"/>
		<path class="st2" d="M94,56.2l5.6-5.6l-0.1,0l0-0.1H88.3C88.3,50.5,94,56.2,94,56.2z"/>
		<polygon class="st2" points="60.5,69.9 52.5,69.9 52.6,70 52.5,70 60.5,77.9 		"/>
		<polygon class="st2" points="88.3,50.5 80.2,69.9 94,56.2 		"/>
	</g>
</g>
</svg>
